<svg width="980" height="132" viewBox="0 0 980 132" fill="none" xmlns="http://www.w3.org/2000/svg">
<path d="M72.7636 125.741L54.908 107.887L89.8433 72.5666L81.3035 64.0275L99.1595 46.1734L107.699 55.1003L141.47 21.3325C146.904 32.5884 147.681 50.831 132.542 65.5803L72.7636 125.741Z" fill="#8743CC"/>
<path d="M9.88057 63.2512L37.4408 90.4207L123.615 3.86605C111.581 -1.17974 92.9488 -1.56785 82.4686 9.68806L37.0523 55.1001C37.0523 55.1001 37.0523 55.1002 28.5127 46.1733C18.0321 34.5289 33.9471 17.451 45.9803 28.7069L54.8938 19.9882L63.8363 11.2408C25.0192 -23.6917 -20.3968 31.0359 9.88057 63.2512Z" fill="#8743CC"/>
<path d="M280.994 111.212H262.237V72.9126H227.091V111.212H208.273V22.474H227.091V57.2528H262.237V22.474H280.994V111.212ZM354.565 111.212H303.453V22.474H354.565V37.8907H322.271V57.3743H352.317V72.791H322.271V95.6737H354.565V111.212ZM430.988 92.8209H420.304V111.212H401.971V92.8209H364.096V79.7712L403.003 22.474H420.304V78.2539H430.988V92.8209ZM401.971 78.2539V63.2012C401.971 60.6922 402.074 57.0508 402.275 52.2757C402.478 47.501 402.641 44.7293 402.761 43.9603H402.275C400.779 47.2786 398.977 50.5157 396.874 53.6717L380.606 78.2539H401.971ZM462.976 61.8659H469.046C474.996 61.8659 479.385 60.8746 482.22 58.8919C485.052 56.9088 486.468 53.7933 486.468 49.5444C486.468 45.3363 485.011 42.3419 482.096 40.5616C479.223 38.7809 474.751 37.8907 468.684 37.8907H462.976V61.8659ZM462.976 77.1614V111.212H444.159V22.474H470.017C482.079 22.474 491.002 24.6794 496.786 29.0898C502.574 33.4599 505.468 40.1165 505.468 49.0589C505.468 54.2787 504.031 58.9323 501.158 63.0192C498.285 67.0653 494.217 70.2421 488.958 72.5483C502.311 92.4973 511.01 105.385 515.057 111.212H494.176L472.993 77.1614H462.976ZM560.464 111.212H541.647V38.1335H517.547V22.474H584.561V38.1335H560.464V111.212Z" fill="#8743CC"/>
<g filter="url(#filter0_d)">
<path d="M632.75 111.212V22.474H651.57V95.6737H687.563V111.212H632.75ZM703.044 111.212V22.474H721.861V111.212H703.044ZM794.825 22.474H813.824L783.657 111.212H763.138L733.029 22.474H752.029L768.721 75.2799C769.654 78.3955 770.604 82.0373 771.577 86.205C772.586 90.3323 773.214 93.2055 773.456 94.8239C773.901 91.1013 775.421 84.5866 778.011 75.2799L794.825 22.474ZM876.166 111.212H825.054V22.474H876.166V37.8907H843.871V57.3743H873.917V72.791H843.871V95.6737H876.166V111.212Z" fill="#EF4242"/>
</g>
<g filter="url(#filter1_d)">
<path d="M939.281 83.5883C950.724 83.5883 960 74.3127 960 62.8706C960 51.4286 950.724 42.153 939.281 42.153C927.838 42.153 918.561 51.4286 918.561 62.8706C918.561 74.3127 927.838 83.5883 939.281 83.5883Z" fill="#EF4242"/>
</g>
<defs>
<filter id="filter0_d" x="612.75" y="2.474" width="283.415" height="128.738" filterUnits="userSpaceOnUse" color-interpolation-filters="sRGB">
<feFlood flood-opacity="0" result="BackgroundImageFix"/>
<feColorMatrix in="SourceAlpha" type="matrix" values="0 0 0 0 0 0 0 0 0 0 0 0 0 0 0 0 0 0 127 0"/>
<feOffset/>
<feGaussianBlur stdDeviation="10"/>
<feColorMatrix type="matrix" values="0 0 0 0 1 0 0 0 0 0.266727 0 0 0 0 0.266727 0 0 0 0.45 0"/>
<feBlend mode="normal" in2="BackgroundImageFix" result="effect1_dropShadow"/>
<feBlend mode="normal" in="SourceGraphic" in2="effect1_dropShadow" result="shape"/>
</filter>
<filter id="filter1_d" x="898.561" y="22.153" width="81.4388" height="81.4353" filterUnits="userSpaceOnUse" color-interpolation-filters="sRGB">
<feFlood flood-opacity="0" result="BackgroundImageFix"/>
<feColorMatrix in="SourceAlpha" type="matrix" values="0 0 0 0 0 0 0 0 0 0 0 0 0 0 0 0 0 0 127 0"/>
<feOffset/>
<feGaussianBlur stdDeviation="10"/>
<feColorMatrix type="matrix" values="0 0 0 0 1 0 0 0 0 0.266727 0 0 0 0 0.266727 0 0 0 0.45 0"/>
<feBlend mode="normal" in2="BackgroundImageFix" result="effect1_dropShadow"/>
<feBlend mode="normal" in="SourceGraphic" in2="effect1_dropShadow" result="shape"/>
</filter>
</defs>
</svg>
