<svg width="299" height="66" viewBox="0 0 299 66" fill="none" xmlns="http://www.w3.org/2000/svg">
<path d="M21.7482 50.2078L16.5775 45.0371L26.6942 34.808L24.2212 32.335L29.392 27.1643L31.8649 29.7496L41.6444 19.9702C43.2181 23.23 43.4429 28.5132 39.059 32.7847L21.7482 50.2078Z" fill="#8743CC"/>
<path d="M3.53822 32.1102L11.5192 39.9787L36.4737 14.9118C32.989 13.4505 27.5934 13.3381 24.5585 16.5979L11.4067 29.7496C11.4067 29.7496 11.4067 29.7496 8.93378 27.1643C5.89877 23.792 10.5075 18.8461 13.9921 22.1059L16.5733 19.5809L19.1629 17.0476C7.9221 6.93087 -5.2296 22.7804 3.53822 32.1102Z" fill="#8743CC"/>
<path d="M82.0481 46H76.6164V34.9082H66.4387V46H60.9895V20.3008H66.4387V30.373H76.6164V20.3008H82.0481V46ZM103.353 46H88.552V20.3008H103.353V24.7656H94.0012V30.4082H102.702V34.873H94.0012V41.5H103.353V46ZM125.484 40.6738H122.39V46H117.081V40.6738H106.113V36.8945L117.38 20.3008H122.39V36.4551H125.484V40.6738ZM117.081 36.4551V32.0957C117.081 31.3691 117.111 30.3145 117.169 28.9316C117.228 27.5488 117.275 26.7461 117.31 26.5234H117.169C116.736 27.4844 116.214 28.4219 115.605 29.3359L110.894 36.4551H117.081ZM134.747 31.709H136.505C138.228 31.709 139.499 31.4219 140.32 30.8477C141.14 30.2734 141.55 29.3711 141.55 28.1406C141.55 26.9219 141.128 26.0547 140.284 25.5391C139.452 25.0234 138.157 24.7656 136.4 24.7656H134.747V31.709ZM134.747 36.1387V46H129.298V20.3008H136.786C140.279 20.3008 142.863 20.9395 144.538 22.2168C146.214 23.4824 147.052 25.4102 147.052 28C147.052 29.5117 146.636 30.8594 145.804 32.043C144.972 33.2148 143.794 34.1348 142.271 34.8027C146.138 40.5801 148.657 44.3125 149.829 46H143.782L137.648 36.1387H134.747ZM162.978 46H157.529V24.8359H150.55V20.3008H169.956V24.8359H162.978V46Z" fill="#8743CC"/>
<g filter="url(#filter0_d)">
<path d="M183.911 46V20.3008H189.361V41.5H199.784V46H183.911ZM204.267 46V20.3008H209.716V46H204.267ZM230.845 20.3008H236.347L227.611 46H221.669L212.95 20.3008H218.452L223.286 35.5938C223.556 36.4961 223.831 37.5508 224.113 38.7578C224.405 39.9531 224.587 40.7852 224.657 41.2539C224.786 40.1758 225.226 38.2891 225.976 35.5938L230.845 20.3008ZM254.4 46H239.599V20.3008H254.4V24.7656H245.048V30.4082H253.749V34.873H245.048V41.5H254.4V46Z" fill="#EF4242"/>
</g>
<g filter="url(#filter1_d)">
<circle cx="272.677" cy="32" r="6" fill="#EF4242"/>
</g>
<defs>
<filter id="filter0_d" x="163.911" y="0.300781" width="110.488" height="65.6992" filterUnits="userSpaceOnUse" color-interpolation-filters="sRGB">
<feFlood flood-opacity="0" result="BackgroundImageFix"/>
<feColorMatrix in="SourceAlpha" type="matrix" values="0 0 0 0 0 0 0 0 0 0 0 0 0 0 0 0 0 0 127 0"/>
<feOffset/>
<feGaussianBlur stdDeviation="10"/>
<feColorMatrix type="matrix" values="0 0 0 0 1 0 0 0 0 0.266727 0 0 0 0 0.266727 0 0 0 0.45 0"/>
<feBlend mode="normal" in2="BackgroundImageFix" result="effect1_dropShadow"/>
<feBlend mode="normal" in="SourceGraphic" in2="effect1_dropShadow" result="shape"/>
</filter>
<filter id="filter1_d" x="246.677" y="6" width="52" height="52" filterUnits="userSpaceOnUse" color-interpolation-filters="sRGB">
<feFlood flood-opacity="0" result="BackgroundImageFix"/>
<feColorMatrix in="SourceAlpha" type="matrix" values="0 0 0 0 0 0 0 0 0 0 0 0 0 0 0 0 0 0 127 0"/>
<feOffset/>
<feGaussianBlur stdDeviation="10"/>
<feColorMatrix type="matrix" values="0 0 0 0 1 0 0 0 0 0.266727 0 0 0 0 0.266727 0 0 0 0.45 0"/>
<feBlend mode="normal" in2="BackgroundImageFix" result="effect1_dropShadow"/>
<feBlend mode="normal" in="SourceGraphic" in2="effect1_dropShadow" result="shape"/>
</filter>
</defs>
</svg>
